<svg width="171" height="100" viewBox="0 0 171 100" fill="none" xmlns="http://www.w3.org/2000/svg">
<rect width="171" height="100" fill="#F5F5DD"/>
<path d="M28.5193 0C43.7173 0.000171379 56.0376 12.3212 56.0376 27.5192C56.0374 39.172 48.7941 49.1318 38.5647 53.145C42.9529 56.2132 45.8685 61.2407 46.0441 66.9589C46.0794 67.1263 46.0997 67.2996 46.0997 67.4775C46.0999 82.6775 58.4218 94.9993 73.6218 94.9995C81.7726 94.9995 89.0935 91.4596 94.1367 85.8252C95.0574 84.7965 96.6378 84.7089 97.6667 85.6295C98.6955 86.5503 98.7832 88.1307 97.8624 89.1595C91.9109 95.8089 83.254 100 73.6218 100C55.67 99.9998 41.1149 85.4544 41.0993 67.5063H41.0547C41.0547 60.8761 35.8973 55.4501 29.3755 55.0218C29.0912 55.0305 28.8058 55.0376 28.5193 55.0376C27.1385 55.0376 26.019 53.918 26.019 52.5373C26.0192 51.1568 27.1386 50.038 28.5193 50.038C28.5273 50.038 28.5353 50.0371 28.5434 50.0371V49.9944C28.8474 49.9944 29.1496 50.0014 29.4498 50.0167C41.4547 49.5285 51.0379 39.644 51.038 27.5192C51.038 15.0826 40.9558 5.00064 28.5193 5.00046C16.0825 5.00046 6.00046 15.0825 6.00046 27.5192C6.00029 28.8998 4.88083 30.0186 3.50023 30.0186C2.11963 30.0186 1.00017 28.8998 1 27.5192C1 12.3211 13.3211 0 28.5193 0Z" fill="#800000"/>
<path d="M20.9727 47.7223V62.7222" stroke="#800000" stroke-width="4.99998" stroke-linecap="round"/>
<path d="M68.0183 27.0388C68.7335 27.0388 70.6054 26.0552 68.0183 23.0557C65.4309 26.0552 67.3033 27.0388 68.0183 27.0388Z" fill="#800000"/>
<path d="M68.0183 31.4059C67.3031 31.4059 65.4312 32.3895 68.018 35.389C70.6054 32.3895 68.7332 31.4059 68.0183 31.4059Z" fill="#800000"/>
<path d="M68.2221 30.2501C68.7897 30.2501 69.2499 29.79 69.2499 29.2224C69.2499 28.6547 68.7897 28.1946 68.2221 28.1946C67.6545 28.1946 67.1943 28.6547 67.1943 29.2224C67.1943 29.79 67.6545 30.2501 68.2221 30.2501Z" fill="#800000"/>
<path d="M69.5801 27.6784C70.0857 28.1782 72.1131 28.791 72.43 24.8618C68.4543 25.1748 69.0744 27.1787 69.5801 27.6784Z" fill="#800000"/>
<path d="M66.4554 30.7666L66.4544 30.7676L66.4552 30.766C65.9497 30.2665 63.9224 29.654 63.6055 33.5827C67.5811 33.2697 66.9611 31.2658 66.4554 30.7666Z" fill="#800000"/>
<path d="M66.4552 27.6784C66.9608 27.1787 67.5809 25.175 63.6055 24.8621C63.9219 28.791 65.9495 28.1782 66.4552 27.6784Z" fill="#800000"/>
<path d="M69.58 30.7663C69.0743 31.266 68.4545 33.2697 72.4297 33.5829C72.113 29.6537 70.0854 30.2665 69.58 30.7663Z" fill="#800000"/>
<path d="M70.2275 29.2224C70.2275 29.9292 71.2228 31.7792 74.2578 29.2224C71.2228 26.6653 70.2275 28.5158 70.2275 29.2224Z" fill="#800000"/>
<path d="M65.8086 29.2224C65.8086 28.5155 64.8134 26.6655 61.7783 29.2221C64.8134 31.7792 65.8086 29.929 65.8086 29.2224Z" fill="#800000"/>
<path d="M67.1221 43.5278V63.5278" stroke="#800000" stroke-width="4.99998" stroke-linecap="round"/>
<path d="M47.0918 53.5278H67.1218" stroke="#800000" stroke-width="4.99998" stroke-linecap="round"/>
<path d="M62.1143 41.0278H72.1293" stroke="#800000" stroke-width="4.99998" stroke-linecap="round"/>
<path d="M91.8454 16.84C92.1521 16.8533 92.5454 16.8667 93.0254 16.88C93.5188 16.8933 94.0054 16.9 94.4854 16.9C95.1254 16.9 95.7321 16.8933 96.3054 16.88C96.8921 16.8667 97.3054 16.86 97.5454 16.86C98.6788 16.86 99.6188 17.0067 100.365 17.3C101.125 17.5933 101.685 18.0067 102.045 18.54C102.419 19.06 102.605 19.66 102.605 20.34C102.605 20.7533 102.519 21.1933 102.345 21.66C102.185 22.1133 101.899 22.54 101.485 22.94C101.072 23.3267 100.512 23.6467 99.8054 23.9C99.0988 24.1533 98.1988 24.28 97.1054 24.28H95.1854V23.88H96.9054C97.7988 23.88 98.4788 23.7333 98.9454 23.44C99.4254 23.1333 99.7454 22.7333 99.9054 22.24C100.079 21.7333 100.165 21.1733 100.165 20.56C100.165 19.5067 99.9388 18.6933 99.4854 18.12C99.0321 17.5333 98.2454 17.24 97.1254 17.24C96.5521 17.24 96.1721 17.3533 95.9854 17.58C95.8121 17.8067 95.7254 18.2667 95.7254 18.96V28.88C95.7254 29.36 95.7654 29.72 95.8454 29.96C95.9254 30.2 96.0788 30.36 96.3054 30.44C96.5321 30.52 96.8654 30.5733 97.3054 30.6V31C96.9854 30.9733 96.5788 30.96 96.0854 30.96C95.6054 30.9467 95.1121 30.94 94.6054 30.94C94.0454 30.94 93.5188 30.9467 93.0254 30.96C92.5454 30.96 92.1521 30.9733 91.8454 31V30.6C92.2988 30.5733 92.6388 30.52 92.8654 30.44C93.0921 30.36 93.2388 30.2 93.3054 29.96C93.3854 29.72 93.4254 29.36 93.4254 28.88V18.96C93.4254 18.4667 93.3854 18.1067 93.3054 17.88C93.2388 17.64 93.0854 17.48 92.8454 17.4C92.6188 17.3067 92.2854 17.2533 91.8454 17.24V16.84ZM95.2254 23.94C95.9054 23.9667 96.4521 24 96.8654 24.04C97.2788 24.0667 97.6254 24.0933 97.9054 24.12C98.1854 24.1467 98.4454 24.18 98.6854 24.22C99.6854 24.3533 100.412 24.62 100.865 25.02C101.332 25.42 101.652 26.0333 101.825 26.86L102.325 28.9C102.445 29.4733 102.572 29.88 102.705 30.12C102.852 30.36 103.065 30.48 103.345 30.48C103.559 30.4667 103.732 30.4067 103.865 30.3C104.012 30.18 104.165 30.02 104.325 29.82L104.605 30.04C104.299 30.4533 103.979 30.7667 103.645 30.98C103.312 31.18 102.865 31.28 102.305 31.28C101.732 31.28 101.239 31.1333 100.825 30.84C100.425 30.5333 100.139 29.96 99.9654 29.12L99.5654 27.12C99.4454 26.5467 99.3121 26.0533 99.1654 25.64C99.0188 25.2133 98.8121 24.88 98.5454 24.64C98.2921 24.4 97.9188 24.28 97.4254 24.28H95.2654L95.2254 23.94ZM109.867 20.4C110.76 20.4 111.554 20.5867 112.247 20.96C112.94 21.3333 113.494 21.92 113.907 22.72C114.32 23.52 114.527 24.5667 114.527 25.86C114.527 27.1533 114.32 28.2 113.907 29C113.494 29.7867 112.94 30.3667 112.247 30.74C111.554 31.1 110.76 31.28 109.867 31.28C108.987 31.28 108.194 31.1 107.487 30.74C106.78 30.3667 106.22 29.7867 105.807 29C105.407 28.2 105.207 27.1533 105.207 25.86C105.207 24.5667 105.407 23.52 105.807 22.72C106.22 21.92 106.78 21.3333 107.487 20.96C108.194 20.5867 108.987 20.4 109.867 20.4ZM109.867 20.8C109.174 20.8 108.607 21.2 108.167 22C107.727 22.7867 107.507 24.0733 107.507 25.86C107.507 27.6467 107.727 28.9333 108.167 29.72C108.607 30.4933 109.174 30.88 109.867 30.88C110.547 30.88 111.107 30.4933 111.547 29.72C112 28.9333 112.227 27.6467 112.227 25.86C112.227 24.0733 112 22.7867 111.547 22C111.107 21.2 110.547 20.8 109.867 20.8ZM120.941 20.4C121.835 20.4 122.628 20.5867 123.321 20.96C124.015 21.3333 124.568 21.92 124.981 22.72C125.395 23.52 125.601 24.5667 125.601 25.86C125.601 27.1533 125.395 28.2 124.981 29C124.568 29.7867 124.015 30.3667 123.321 30.74C122.628 31.1 121.835 31.28 120.941 31.28C120.061 31.28 119.268 31.1 118.561 30.74C117.855 30.3667 117.295 29.7867 116.881 29C116.481 28.2 116.281 27.1533 116.281 25.86C116.281 24.5667 116.481 23.52 116.881 22.72C117.295 21.92 117.855 21.3333 118.561 20.96C119.268 20.5867 120.061 20.4 120.941 20.4ZM120.941 20.8C120.248 20.8 119.681 21.2 119.241 22C118.801 22.7867 118.581 24.0733 118.581 25.86C118.581 27.6467 118.801 28.9333 119.241 29.72C119.681 30.4933 120.248 30.88 120.941 30.88C121.621 30.88 122.181 30.4933 122.621 29.72C123.075 28.9333 123.301 27.6467 123.301 25.86C123.301 24.0733 123.075 22.7867 122.621 22C122.181 21.2 121.621 20.8 120.941 20.8ZM130.496 20.46V32.72C130.496 33.3067 130.662 33.7 130.996 33.9C131.329 34.1 131.789 34.2 132.376 34.2V34.62C132.069 34.6067 131.642 34.5867 131.096 34.56C130.549 34.5467 129.962 34.54 129.336 34.54C128.896 34.54 128.462 34.5467 128.036 34.56C127.609 34.5867 127.282 34.6067 127.056 34.62V34.2C127.522 34.2 127.849 34.1067 128.036 33.92C128.236 33.7467 128.336 33.4133 128.336 32.92V22.86C128.336 22.26 128.236 21.82 128.036 21.54C127.836 21.2467 127.456 21.1 126.896 21.1V20.68C127.322 20.72 127.736 20.74 128.136 20.74C128.576 20.74 128.996 20.72 129.396 20.68C129.796 20.6267 130.162 20.5533 130.496 20.46ZM133.676 20.4C134.369 20.4 134.989 20.5933 135.536 20.98C136.096 21.3533 136.536 21.9067 136.856 22.64C137.176 23.3733 137.336 24.2867 137.336 25.38C137.336 26.18 137.242 26.94 137.056 27.66C136.869 28.3667 136.582 28.9933 136.196 29.54C135.822 30.0733 135.349 30.5 134.776 30.82C134.202 31.1267 133.522 31.28 132.736 31.28C132.149 31.28 131.629 31.1533 131.176 30.9C130.736 30.6467 130.422 30.3267 130.236 29.94L130.436 29.66C130.609 29.9933 130.849 30.2667 131.156 30.48C131.476 30.6933 131.869 30.8 132.336 30.8C133.029 30.8 133.569 30.58 133.956 30.14C134.356 29.6867 134.636 29.08 134.796 28.32C134.956 27.5467 135.036 26.6733 135.036 25.7C135.036 24.6067 134.956 23.7267 134.796 23.06C134.636 22.38 134.396 21.8867 134.076 21.58C133.756 21.26 133.369 21.1 132.916 21.1C132.316 21.1 131.769 21.34 131.276 21.82C130.796 22.3 130.502 23.02 130.396 23.98L130.196 23.56C130.369 22.56 130.769 21.7867 131.396 21.24C132.036 20.68 132.796 20.4 133.676 20.4ZM96.3654 43.6C97.0721 43.6 97.6121 43.68 97.9854 43.84C98.3588 44 98.6854 44.1733 98.9654 44.36C99.1254 44.4533 99.2521 44.5267 99.3454 44.58C99.4521 44.62 99.5521 44.64 99.6454 44.64C99.7788 44.64 99.8721 44.5667 99.9254 44.42C99.9921 44.2733 100.045 44.0533 100.085 43.76H100.545C100.532 44 100.512 44.2867 100.485 44.62C100.472 44.94 100.459 45.3667 100.445 45.9C100.445 46.4333 100.445 47.1333 100.445 48H99.9854C99.9454 47.3467 99.7988 46.7133 99.5454 46.1C99.3054 45.4867 98.9454 44.9867 98.4654 44.6C97.9988 44.2133 97.3988 44.02 96.6654 44.02C95.9854 44.02 95.4188 44.2267 94.9654 44.64C94.5254 45.04 94.3054 45.5733 94.3054 46.24C94.3054 46.8267 94.4521 47.32 94.7454 47.72C95.0388 48.1067 95.4388 48.4733 95.9454 48.82C96.4654 49.1533 97.0521 49.5267 97.7054 49.94C98.3721 50.3667 98.9721 50.7933 99.5054 51.22C100.039 51.6333 100.459 52.0933 100.765 52.6C101.072 53.1067 101.225 53.72 101.225 54.44C101.225 55.3067 101.019 56.0267 100.605 56.6C100.205 57.16 99.6654 57.58 98.9854 57.86C98.3054 58.14 97.5588 58.28 96.7454 58.28C95.9988 58.28 95.4054 58.2 94.9654 58.04C94.5254 57.88 94.1521 57.7133 93.8454 57.54C93.5521 57.3533 93.3254 57.26 93.1654 57.26C93.0321 57.26 92.9321 57.3333 92.8654 57.48C92.8121 57.6267 92.7654 57.8467 92.7254 58.14H92.2654C92.2921 57.8467 92.3054 57.5067 92.3054 57.12C92.3188 56.72 92.3254 56.2 92.3254 55.56C92.3388 54.92 92.3454 54.1133 92.3454 53.14H92.8054C92.8588 53.9667 93.0054 54.74 93.2454 55.46C93.4988 56.18 93.8788 56.76 94.3854 57.2C94.9054 57.6267 95.5921 57.84 96.4454 57.84C96.8988 57.84 97.3188 57.7533 97.7054 57.58C98.0921 57.4067 98.4054 57.1333 98.6454 56.76C98.8854 56.3867 99.0054 55.9067 99.0054 55.32C99.0054 54.7733 98.8721 54.2933 98.6054 53.88C98.3521 53.4667 97.9921 53.0867 97.5254 52.74C97.0721 52.38 96.5388 52.0133 95.9254 51.64C95.2988 51.24 94.7121 50.84 94.1654 50.44C93.6188 50.04 93.1788 49.5733 92.8454 49.04C92.5254 48.5067 92.3654 47.8733 92.3654 47.14C92.3654 46.3267 92.5521 45.66 92.9254 45.14C93.3121 44.62 93.8054 44.2333 94.4054 43.98C95.0188 43.7267 95.6721 43.6 96.3654 43.6ZM105.519 58.14C104.959 58.14 104.479 58.0333 104.079 57.82C103.679 57.6067 103.379 57.3133 103.179 56.94C102.979 56.5667 102.879 56.14 102.879 55.66C102.879 55.0733 103.013 54.6 103.279 54.24C103.546 53.8667 103.886 53.5667 104.299 53.34C104.726 53.1133 105.173 52.9267 105.639 52.78C106.119 52.62 106.566 52.4733 106.979 52.34C107.406 52.1933 107.753 52.0267 108.019 51.84C108.299 51.6533 108.439 51.4067 108.439 51.1V49.74C108.439 49.26 108.359 48.88 108.199 48.6C108.053 48.3067 107.846 48.1 107.579 47.98C107.326 47.86 107.019 47.8 106.659 47.8C106.353 47.8 106.026 47.8467 105.679 47.94C105.333 48.02 105.059 48.1867 104.859 48.44C105.153 48.52 105.393 48.68 105.579 48.92C105.779 49.1467 105.879 49.4333 105.879 49.78C105.879 50.1533 105.753 50.4467 105.499 50.66C105.259 50.8733 104.953 50.98 104.579 50.98C104.166 50.98 103.859 50.8533 103.659 50.6C103.459 50.3333 103.359 50.0267 103.359 49.68C103.359 49.32 103.446 49.0267 103.619 48.8C103.806 48.5733 104.046 48.36 104.339 48.16C104.659 47.9467 105.066 47.7667 105.559 47.62C106.066 47.4733 106.626 47.4 107.239 47.4C107.813 47.4 108.306 47.4667 108.719 47.6C109.146 47.72 109.499 47.92 109.779 48.2C110.113 48.5067 110.333 48.8933 110.439 49.36C110.546 49.8133 110.599 50.3667 110.599 51.02V56.54C110.599 56.8733 110.639 57.1133 110.719 57.26C110.813 57.3933 110.959 57.46 111.159 57.46C111.293 57.46 111.419 57.4267 111.539 57.36C111.673 57.2933 111.826 57.1933 111.999 57.06L112.199 57.4C111.919 57.6267 111.633 57.8067 111.339 57.94C111.059 58.0733 110.699 58.14 110.259 58.14C109.833 58.14 109.486 58.0733 109.219 57.94C108.953 57.8067 108.753 57.6133 108.619 57.36C108.499 57.1067 108.439 56.7933 108.439 56.42C108.093 56.98 107.679 57.4067 107.199 57.7C106.719 57.9933 106.159 58.14 105.519 58.14ZM106.479 57.18C106.853 57.18 107.199 57.0733 107.519 56.86C107.853 56.6467 108.159 56.3267 108.439 55.9V51.92C108.293 52.1333 108.079 52.32 107.799 52.48C107.519 52.6267 107.219 52.78 106.899 52.94C106.579 53.1 106.273 53.2867 105.979 53.5C105.699 53.7 105.466 53.96 105.279 54.28C105.093 54.6 104.999 55.0067 104.999 55.5C104.999 56.02 105.133 56.4333 105.399 56.74C105.666 57.0333 106.026 57.18 106.479 57.18ZM119.757 47.4C120.29 47.4 120.724 47.4733 121.057 47.62C121.404 47.7533 121.69 47.94 121.917 48.18C122.157 48.4333 122.324 48.76 122.417 49.16C122.524 49.56 122.577 50.1 122.577 50.78V56.14C122.577 56.7 122.684 57.08 122.897 57.28C123.124 57.48 123.497 57.58 124.017 57.58V58C123.79 57.9867 123.437 57.9733 122.957 57.96C122.477 57.9333 122.004 57.92 121.537 57.92C121.084 57.92 120.63 57.9333 120.177 57.96C119.737 57.9733 119.404 57.9867 119.177 58V57.58C119.63 57.58 119.95 57.48 120.137 57.28C120.324 57.08 120.417 56.7 120.417 56.14V50.22C120.417 49.8333 120.384 49.4867 120.317 49.18C120.25 48.86 120.11 48.6067 119.897 48.42C119.684 48.22 119.364 48.12 118.937 48.12C118.444 48.12 118.004 48.26 117.617 48.54C117.244 48.82 116.944 49.2067 116.717 49.7C116.504 50.18 116.397 50.72 116.397 51.32V56.14C116.397 56.7 116.49 57.08 116.677 57.28C116.877 57.48 117.197 57.58 117.637 57.58V58C117.424 57.9867 117.097 57.9733 116.657 57.96C116.23 57.9333 115.784 57.92 115.317 57.92C114.864 57.92 114.39 57.9333 113.897 57.96C113.404 57.9733 113.037 57.9867 112.797 58V57.58C113.317 57.58 113.684 57.48 113.897 57.28C114.124 57.08 114.237 56.7 114.237 56.14V49.86C114.237 49.26 114.137 48.82 113.937 48.54C113.737 48.2467 113.357 48.1 112.797 48.1V47.68C113.224 47.72 113.637 47.74 114.037 47.74C114.49 47.74 114.91 47.72 115.297 47.68C115.697 47.6267 116.064 47.5533 116.397 47.46V49.64C116.744 48.8133 117.217 48.2333 117.817 47.9C118.43 47.5667 119.077 47.4 119.757 47.4ZM134.208 42.32V55.82C134.208 56.42 134.308 56.8667 134.508 57.16C134.721 57.44 135.101 57.58 135.648 57.58V58C135.234 57.96 134.821 57.94 134.408 57.94C133.954 57.94 133.528 57.96 133.128 58C132.741 58.04 132.381 58.1133 132.048 58.22V44.72C132.048 44.12 131.941 43.68 131.728 43.4C131.528 43.1067 131.154 42.96 130.608 42.96V42.54C131.034 42.58 131.448 42.6 131.848 42.6C132.288 42.6 132.708 42.58 133.108 42.54C133.508 42.4867 133.874 42.4133 134.208 42.32ZM129.708 47.4C130.294 47.4 130.828 47.5267 131.308 47.78C131.801 48.0333 132.148 48.46 132.348 49.06L132.108 49.28C131.921 48.8 131.648 48.4533 131.288 48.24C130.928 48.0133 130.521 47.9 130.068 47.9C129.308 47.9 128.688 48.3067 128.208 49.12C127.728 49.92 127.494 51.16 127.508 52.84C127.508 53.9467 127.601 54.8533 127.788 55.56C127.974 56.2533 128.248 56.7667 128.608 57.1C128.981 57.4333 129.428 57.6 129.948 57.6C130.468 57.6 130.934 57.38 131.348 56.94C131.774 56.5 132.028 55.8667 132.108 55.04L132.288 55.46C132.154 56.3667 131.834 57.0667 131.328 57.56C130.821 58.04 130.141 58.28 129.288 58.28C128.474 58.28 127.754 58.0867 127.128 57.7C126.514 57.3 126.041 56.7 125.708 55.9C125.374 55.0867 125.208 54.0667 125.208 52.84C125.208 51.6267 125.408 50.62 125.808 49.82C126.221 49.0067 126.768 48.4 127.448 48C128.128 47.6 128.881 47.4 129.708 47.4ZM141.586 47.4C142.479 47.4 143.273 47.5867 143.966 47.96C144.659 48.3333 145.213 48.92 145.626 49.72C146.039 50.52 146.246 51.5667 146.246 52.86C146.246 54.1533 146.039 55.2 145.626 56C145.213 56.7867 144.659 57.3667 143.966 57.74C143.273 58.1 142.479 58.28 141.586 58.28C140.706 58.28 139.913 58.1 139.206 57.74C138.499 57.3667 137.939 56.7867 137.526 56C137.126 55.2 136.926 54.1533 136.926 52.86C136.926 51.5667 137.126 50.52 137.526 49.72C137.939 48.92 138.499 48.3333 139.206 47.96C139.913 47.5867 140.706 47.4 141.586 47.4ZM141.586 47.8C140.893 47.8 140.326 48.2 139.886 49C139.446 49.7867 139.226 51.0733 139.226 52.86C139.226 54.6467 139.446 55.9333 139.886 56.72C140.326 57.4933 140.893 57.88 141.586 57.88C142.266 57.88 142.826 57.4933 143.266 56.72C143.719 55.9333 143.946 54.6467 143.946 52.86C143.946 51.0733 143.719 49.7867 143.266 49C142.826 48.2 142.266 47.8 141.586 47.8ZM152.66 47.4C153.553 47.4 154.347 47.5867 155.04 47.96C155.733 48.3333 156.287 48.92 156.7 49.72C157.113 50.52 157.32 51.5667 157.32 52.86C157.32 54.1533 157.113 55.2 156.7 56C156.287 56.7867 155.733 57.3667 155.04 57.74C154.347 58.1 153.553 58.28 152.66 58.28C151.78 58.28 150.987 58.1 150.28 57.74C149.573 57.3667 149.013 56.7867 148.6 56C148.2 55.2 148 54.1533 148 52.86C148 51.5667 148.2 50.52 148.6 49.72C149.013 48.92 149.573 48.3333 150.28 47.96C150.987 47.5867 151.78 47.4 152.66 47.4ZM152.66 47.8C151.967 47.8 151.4 48.2 150.96 49C150.52 49.7867 150.3 51.0733 150.3 52.86C150.3 54.6467 150.52 55.9333 150.96 56.72C151.4 57.4933 151.967 57.88 152.66 57.88C153.34 57.88 153.9 57.4933 154.34 56.72C154.793 55.9333 155.02 54.6467 155.02 52.86C155.02 51.0733 154.793 49.7867 154.34 49C153.9 48.2 153.34 47.8 152.66 47.8ZM161.999 42.32V56.14C161.999 56.7 162.092 57.08 162.279 57.28C162.479 57.48 162.812 57.58 163.279 57.58V58C163.052 57.9867 162.712 57.9733 162.259 57.96C161.819 57.9333 161.372 57.92 160.919 57.92C160.452 57.92 159.972 57.9333 159.479 57.96C158.999 57.9733 158.639 57.9867 158.399 58V57.58C158.919 57.58 159.286 57.48 159.499 57.28C159.726 57.08 159.839 56.7 159.839 56.14V44.72C159.839 44.12 159.732 43.68 159.519 43.4C159.319 43.1067 158.946 42.96 158.399 42.96V42.54C158.826 42.58 159.239 42.6 159.639 42.6C160.079 42.6 160.499 42.58 160.899 42.54C161.299 42.4867 161.666 42.4133 161.999 42.32ZM168.399 47.68V48.08C168.039 48.1333 167.692 48.2533 167.359 48.44C167.026 48.6267 166.699 48.8867 166.379 49.22L163.979 51.74L164.239 51.24L167.859 56.54C168.059 56.82 168.252 57.0533 168.439 57.24C168.626 57.4133 168.859 57.5267 169.139 57.58V58C168.966 57.9867 168.706 57.9733 168.359 57.96C168.026 57.9333 167.692 57.92 167.359 57.92C166.919 57.92 166.472 57.9333 166.019 57.96C165.566 57.9733 165.232 57.9867 165.019 58V57.58C165.286 57.58 165.466 57.5133 165.559 57.38C165.666 57.2467 165.652 57.0867 165.519 56.9L163.319 53.46C163.092 53.14 162.886 52.9333 162.699 52.84C162.512 52.7467 162.246 52.6933 161.899 52.68V52.28C162.286 52.24 162.599 52.1667 162.839 52.06C163.092 51.9533 163.326 51.78 163.539 51.54L165.039 50.02C165.466 49.5933 165.679 49.24 165.679 48.96C165.679 48.6667 165.539 48.4533 165.259 48.32C164.992 48.1733 164.632 48.0933 164.179 48.08V47.68C164.539 47.6933 164.932 47.7133 165.359 47.74C165.799 47.7533 166.166 47.76 166.459 47.76C166.699 47.76 166.939 47.76 167.179 47.76C167.432 47.7467 167.666 47.7333 167.879 47.72C168.092 47.7067 168.266 47.6933 168.399 47.68Z" fill="#800000"/>
<line x1="83.4824" y1="65.5" x2="83.4824" y2="6.5" stroke="#800000" stroke-linecap="round"/>
</svg>
