<svg width="100" height="100" viewBox="0 0 100 100" fill="none" xmlns="http://www.w3.org/2000/svg">
<path d="M28.5193 0C43.7173 0.000171379 56.0376 12.3212 56.0376 27.5192C56.0374 39.172 48.7941 49.1318 38.5647 53.145C42.9529 56.2132 45.8685 61.2407 46.0441 66.9589C46.0794 67.1263 46.0997 67.2996 46.0997 67.4775C46.0999 82.6775 58.4218 94.9993 73.6218 94.9995C81.7726 94.9995 89.0935 91.4596 94.1367 85.8252C95.0574 84.7965 96.6378 84.7089 97.6667 85.6295C98.6955 86.5503 98.7832 88.1307 97.8624 89.1595C91.9109 95.8089 83.254 100 73.6218 100C55.67 99.9998 41.1149 85.4544 41.0993 67.5063H41.0547C41.0547 60.8761 35.8973 55.4501 29.3755 55.0218C29.0912 55.0305 28.8058 55.0376 28.5193 55.0376C27.1385 55.0376 26.019 53.918 26.019 52.5373C26.0192 51.1568 27.1386 50.038 28.5193 50.038C28.5273 50.038 28.5353 50.0371 28.5434 50.0371V49.9944C28.8474 49.9944 29.1496 50.0014 29.4498 50.0167C41.4547 49.5285 51.0379 39.644 51.038 27.5192C51.038 15.0826 40.9558 5.00064 28.5193 5.00046C16.0825 5.00046 6.00046 15.0825 6.00046 27.5192C6.00029 28.8998 4.88083 30.0186 3.50023 30.0186C2.11963 30.0186 1.00017 28.8998 1 27.5192C1 12.3211 13.3211 0 28.5193 0Z" fill="#800000"/>
<path d="M20.9722 47.7223V62.7222" stroke="#800000" stroke-width="4.99998" stroke-linecap="round"/>
<path d="M67.2225 27.0388C67.9293 27.0388 69.7793 26.0552 67.2225 23.0557C64.6654 26.0552 66.5159 27.0388 67.2225 27.0388Z" fill="#800000"/>
<path d="M67.2225 31.4059C66.5156 31.4059 64.6657 32.3895 67.2222 35.389C69.7793 32.3895 67.9291 31.4059 67.2225 31.4059Z" fill="#800000"/>
<path d="M67.2221 30.2501C67.7897 30.2501 68.2499 29.79 68.2499 29.2224C68.2499 28.6547 67.7897 28.1946 67.2221 28.1946C66.6545 28.1946 66.1943 28.6547 66.1943 29.2224C66.1943 29.79 66.6545 30.2501 67.2221 30.2501Z" fill="#800000"/>
<path d="M68.7662 27.6784C69.2659 28.1782 71.2696 28.791 71.5828 24.8618C67.6536 25.1748 68.2664 27.1787 68.7662 27.6784Z" fill="#800000"/>
<path d="M65.6784 30.7666L65.6774 30.7676L65.6782 30.766C65.1787 30.2665 63.175 29.654 62.8618 33.5827C66.791 33.2697 66.1782 31.2658 65.6784 30.7666Z" fill="#800000"/>
<path d="M65.6782 27.6784C66.1779 27.1787 66.7907 25.175 62.8618 24.8621C63.1745 28.791 65.1784 28.1782 65.6782 27.6784Z" fill="#800000"/>
<path d="M68.7661 30.7663C68.2664 31.266 67.6538 33.2697 71.5825 33.5829C71.2695 29.6537 69.2656 30.2665 68.7661 30.7663Z" fill="#800000"/>
<path d="M69.4058 29.2224C69.4058 29.9292 70.3893 31.7792 73.3889 29.2224C70.3893 26.6653 69.4058 28.5158 69.4058 29.2224Z" fill="#800000"/>
<path d="M65.0388 29.2224C65.0388 28.5155 64.0552 26.6655 61.0557 29.2221C64.0552 31.7792 65.0388 29.929 65.0388 29.2224Z" fill="#800000"/>
<path d="M67.1216 43.5278V63.5278" stroke="#800000" stroke-width="4.99998" stroke-linecap="round"/>
<path d="M47.0918 53.5278H67.1218" stroke="#800000" stroke-width="4.99998" stroke-linecap="round"/>
<path d="M62.1143 41.0278H72.1293" stroke="#800000" stroke-width="4.99998" stroke-linecap="round"/>
</svg>
