<svg width="355" height="100" viewBox="0 0 355 100" fill="none" xmlns="http://www.w3.org/2000/svg">
<path d="M28.5193 0C43.7173 0.000171379 56.0376 12.3212 56.0376 27.5192C56.0374 39.172 48.7941 49.1318 38.5647 53.145C42.9529 56.2132 45.8685 61.2407 46.0441 66.9589C46.0794 67.1263 46.0997 67.2996 46.0997 67.4775C46.0999 82.6775 58.4218 94.9993 73.6218 94.9995C81.7726 94.9995 89.0935 91.4596 94.1367 85.8252C95.0574 84.7965 96.6379 84.7089 97.6667 85.6295C98.6955 86.5503 98.7832 88.1307 97.8624 89.1595C91.9109 95.8089 83.2539 100 73.6218 100C55.67 99.9998 41.1149 85.4544 41.0993 67.5063H41.0547C41.0547 60.8761 35.8973 55.4501 29.3755 55.0218C29.0912 55.0305 28.8058 55.0376 28.5193 55.0376C27.1385 55.0376 26.019 53.918 26.019 52.5373C26.0192 51.1568 27.1386 50.038 28.5193 50.038C28.5273 50.038 28.5353 50.0371 28.5434 50.0371V49.9944C28.8474 49.9944 29.1496 50.0014 29.4498 50.0167C41.4547 49.5285 51.0379 39.644 51.038 27.5192C51.038 15.0826 40.9558 5.00064 28.5193 5.00046C16.0825 5.00046 6.00046 15.0825 6.00046 27.5192C6.00029 28.8998 4.88083 30.0186 3.50023 30.0186C2.11963 30.0186 1.00017 28.8998 1 27.5192C1 12.3211 13.3211 0 28.5193 0Z" fill="#F5F5DD"/>
<path d="M20.9724 47.7223V62.7222" stroke="#F5F5DD" stroke-width="4.99998" stroke-linecap="round"/>
<path d="M67.2222 27.0388C67.9291 27.0388 69.7791 26.0552 67.2222 23.0557C64.6651 26.0552 66.5156 27.0388 67.2222 27.0388Z" fill="#F5F5DD"/>
<path d="M67.2223 31.4059C66.5154 31.4059 64.6654 32.3895 67.222 35.389C69.7791 32.3895 67.9288 31.4059 67.2223 31.4059Z" fill="#F5F5DD"/>
<path d="M67.2224 30.2501C67.79 30.2501 68.2501 29.79 68.2501 29.2224C68.2501 28.6547 67.79 28.1946 67.2224 28.1946C66.6547 28.1946 66.1946 28.6547 66.1946 29.2224C66.1946 29.79 66.6547 30.2501 67.2224 30.2501Z" fill="#F5F5DD"/>
<path d="M68.7662 27.6784C69.2659 28.1782 71.2696 28.791 71.5828 24.8618C67.6536 25.1748 68.2664 27.1787 68.7662 27.6784Z" fill="#F5F5DD"/>
<path d="M65.6784 30.7666L65.6774 30.7676L65.6782 30.766C65.1787 30.2665 63.175 29.654 62.8618 33.5827C66.791 33.2697 66.1782 31.2658 65.6784 30.7666Z" fill="#F5F5DD"/>
<path d="M65.6784 27.6784C66.1782 27.1787 66.791 25.175 62.8621 24.8621C63.1748 28.791 65.1787 28.1782 65.6784 27.6784Z" fill="#F5F5DD"/>
<path d="M68.7663 30.7663C68.2666 31.266 67.654 33.2697 71.5827 33.5829C71.2697 29.6537 69.2658 30.2665 68.7663 30.7663Z" fill="#F5F5DD"/>
<path d="M69.4058 29.2224C69.4058 29.9292 70.3893 31.7792 73.3889 29.2224C70.3893 26.6653 69.4058 28.5158 69.4058 29.2224Z" fill="#F5F5DD"/>
<path d="M65.0388 29.2224C65.0388 28.5155 64.0552 26.6655 61.0557 29.2221C64.0552 31.7792 65.0388 29.929 65.0388 29.2224Z" fill="#F5F5DD"/>
<path d="M67.1218 43.5278V63.5278" stroke="#F5F5DD" stroke-width="4.99998" stroke-linecap="round"/>
<path d="M47.0918 53.5278H67.1218" stroke="#F5F5DD" stroke-width="4.99998" stroke-linecap="round"/>
<path d="M62.1145 41.0278H72.1295" stroke="#F5F5DD" stroke-width="4.99998" stroke-linecap="round"/>
<path d="M95.56 21.68C96.1733 21.7067 96.96 21.7333 97.92 21.76C98.9067 21.7867 99.88 21.8 100.84 21.8C102.12 21.8 103.333 21.7867 104.48 21.76C105.653 21.7333 106.48 21.72 106.96 21.72C109.227 21.72 111.107 22.0133 112.6 22.6C114.12 23.1867 115.24 24.0133 115.96 25.08C116.707 26.12 117.08 27.32 117.08 28.68C117.08 29.5067 116.907 30.3867 116.56 31.32C116.24 32.2267 115.667 33.08 114.84 33.88C114.013 34.6533 112.893 35.2933 111.48 35.8C110.067 36.3067 108.267 36.56 106.08 36.56H102.24V35.76H105.68C107.467 35.76 108.827 35.4667 109.76 34.88C110.72 34.2667 111.36 33.4667 111.68 32.48C112.027 31.4667 112.2 30.3467 112.2 29.12C112.2 27.0133 111.747 25.3867 110.84 24.24C109.933 23.0667 108.36 22.48 106.12 22.48C104.973 22.48 104.213 22.7067 103.84 23.16C103.493 23.6133 103.32 24.5333 103.32 25.92V45.76C103.32 46.72 103.4 47.44 103.56 47.92C103.72 48.4 104.027 48.72 104.48 48.88C104.933 49.04 105.6 49.1467 106.48 49.2V50C105.84 49.9467 105.027 49.92 104.04 49.92C103.08 49.8933 102.093 49.88 101.08 49.88C99.96 49.88 98.9067 49.8933 97.92 49.92C96.96 49.92 96.1733 49.9467 95.56 50V49.2C96.4667 49.1467 97.1467 49.04 97.6 48.88C98.0533 48.72 98.3467 48.4 98.48 47.92C98.64 47.44 98.72 46.72 98.72 45.76V25.92C98.72 24.9333 98.64 24.2133 98.48 23.76C98.3467 23.28 98.04 22.96 97.56 22.8C97.1067 22.6133 96.44 22.5067 95.56 22.48V21.68ZM102.32 35.88C103.68 35.9333 104.773 36 105.6 36.08C106.427 36.1333 107.12 36.1867 107.68 36.24C108.24 36.2933 108.76 36.36 109.24 36.44C111.24 36.7067 112.693 37.24 113.6 38.04C114.533 38.84 115.173 40.0667 115.52 41.72L116.52 45.8C116.76 46.9467 117.013 47.76 117.28 48.24C117.573 48.72 118 48.96 118.56 48.96C118.987 48.9333 119.333 48.8133 119.6 48.6C119.893 48.36 120.2 48.04 120.52 47.64L121.08 48.08C120.467 48.9067 119.827 49.5333 119.16 49.96C118.493 50.36 117.6 50.56 116.48 50.56C115.333 50.56 114.347 50.2667 113.52 49.68C112.72 49.0667 112.147 47.92 111.8 46.24L111 42.24C110.76 41.0933 110.493 40.1067 110.2 39.28C109.907 38.4267 109.493 37.76 108.96 37.28C108.453 36.8 107.707 36.56 106.72 36.56H102.4L102.32 35.88ZM131.603 28.8C133.39 28.8 134.977 29.1733 136.363 29.92C137.75 30.6667 138.857 31.84 139.683 33.44C140.51 35.04 140.923 37.1333 140.923 39.72C140.923 42.3067 140.51 44.4 139.683 46C138.857 47.5733 137.75 48.7333 136.363 49.48C134.977 50.2 133.39 50.56 131.603 50.56C129.843 50.56 128.257 50.2 126.843 49.48C125.43 48.7333 124.31 47.5733 123.483 46C122.683 44.4 122.283 42.3067 122.283 39.72C122.283 37.1333 122.683 35.04 123.483 33.44C124.31 31.84 125.43 30.6667 126.843 29.92C128.257 29.1733 129.843 28.8 131.603 28.8ZM131.603 29.6C130.217 29.6 129.083 30.4 128.203 32C127.323 33.5733 126.883 36.1467 126.883 39.72C126.883 43.2933 127.323 45.8667 128.203 47.44C129.083 48.9867 130.217 49.76 131.603 49.76C132.963 49.76 134.083 48.9867 134.963 47.44C135.87 45.8667 136.323 43.2933 136.323 39.72C136.323 36.1467 135.87 33.5733 134.963 32C134.083 30.4 132.963 29.6 131.603 29.6ZM153.752 28.8C155.539 28.8 157.125 29.1733 158.512 29.92C159.899 30.6667 161.005 31.84 161.832 33.44C162.659 35.04 163.072 37.1333 163.072 39.72C163.072 42.3067 162.659 44.4 161.832 46C161.005 47.5733 159.899 48.7333 158.512 49.48C157.125 50.2 155.539 50.56 153.752 50.56C151.992 50.56 150.405 50.2 148.992 49.48C147.579 48.7333 146.459 47.5733 145.632 46C144.832 44.4 144.432 42.3067 144.432 39.72C144.432 37.1333 144.832 35.04 145.632 33.44C146.459 31.84 147.579 30.6667 148.992 29.92C150.405 29.1733 151.992 28.8 153.752 28.8ZM153.752 29.6C152.365 29.6 151.232 30.4 150.352 32C149.472 33.5733 149.032 36.1467 149.032 39.72C149.032 43.2933 149.472 45.8667 150.352 47.44C151.232 48.9867 152.365 49.76 153.752 49.76C155.112 49.76 156.232 48.9867 157.112 47.44C158.019 45.8667 158.472 43.2933 158.472 39.72C158.472 36.1467 158.019 33.5733 157.112 32C156.232 30.4 155.112 29.6 153.752 29.6ZM172.86 28.92V53.44C172.86 54.6133 173.194 55.4 173.86 55.8C174.527 56.2 175.447 56.4 176.62 56.4V57.24C176.007 57.2133 175.154 57.1733 174.06 57.12C172.967 57.0933 171.794 57.08 170.54 57.08C169.66 57.08 168.794 57.0933 167.94 57.12C167.087 57.1733 166.434 57.2133 165.98 57.24V56.4C166.914 56.4 167.567 56.2133 167.94 55.84C168.34 55.4933 168.54 54.8267 168.54 53.84V33.72C168.54 32.52 168.34 31.64 167.94 31.08C167.54 30.4933 166.78 30.2 165.66 30.2V29.36C166.514 29.44 167.34 29.48 168.14 29.48C169.02 29.48 169.86 29.44 170.66 29.36C171.46 29.2533 172.194 29.1067 172.86 28.92ZM179.22 28.8C180.607 28.8 181.847 29.1867 182.94 29.96C184.06 30.7067 184.94 31.8133 185.58 33.28C186.22 34.7467 186.54 36.5733 186.54 38.76C186.54 40.36 186.354 41.88 185.98 43.32C185.607 44.7333 185.034 45.9867 184.26 47.08C183.514 48.1467 182.567 49 181.42 49.64C180.274 50.2533 178.914 50.56 177.34 50.56C176.167 50.56 175.127 50.3067 174.22 49.8C173.34 49.2933 172.714 48.6533 172.34 47.88L172.74 47.32C173.087 47.9867 173.567 48.5333 174.18 48.96C174.82 49.3867 175.607 49.6 176.54 49.6C177.927 49.6 179.007 49.16 179.78 48.28C180.58 47.3733 181.14 46.16 181.46 44.64C181.78 43.0933 181.94 41.3467 181.94 39.4C181.94 37.2133 181.78 35.4533 181.46 34.12C181.14 32.76 180.66 31.7733 180.02 31.16C179.38 30.52 178.607 30.2 177.7 30.2C176.5 30.2 175.407 30.68 174.42 31.64C173.46 32.6 172.874 34.04 172.66 35.96L172.26 35.12C172.607 33.12 173.407 31.5733 174.66 30.48C175.94 29.36 177.46 28.8 179.22 28.8ZM208.663 21.2C210.076 21.2 211.156 21.36 211.903 21.68C212.649 22 213.303 22.3467 213.863 22.72C214.183 22.9067 214.436 23.0533 214.623 23.16C214.836 23.24 215.036 23.28 215.223 23.28C215.489 23.28 215.676 23.1333 215.783 22.84C215.916 22.5467 216.023 22.1067 216.103 21.52H217.023C216.996 22 216.956 22.5733 216.903 23.24C216.876 23.88 216.849 24.7333 216.823 25.8C216.823 26.8667 216.823 28.2667 216.823 30H215.903C215.823 28.6933 215.529 27.4267 215.023 26.2C214.543 24.9733 213.823 23.9733 212.863 23.2C211.929 22.4267 210.729 22.04 209.263 22.04C207.903 22.04 206.769 22.4533 205.863 23.28C204.983 24.08 204.543 25.1467 204.543 26.48C204.543 27.6533 204.836 28.64 205.423 29.44C206.009 30.2133 206.809 30.9467 207.823 31.64C208.863 32.3067 210.036 33.0533 211.343 33.88C212.676 34.7333 213.876 35.5867 214.943 36.44C216.009 37.2667 216.849 38.1867 217.463 39.2C218.076 40.2133 218.383 41.44 218.383 42.88C218.383 44.6133 217.969 46.0533 217.143 47.2C216.343 48.32 215.263 49.16 213.903 49.72C212.543 50.28 211.049 50.56 209.423 50.56C207.929 50.56 206.743 50.4 205.863 50.08C204.983 49.76 204.236 49.4267 203.623 49.08C203.036 48.7067 202.583 48.52 202.263 48.52C201.996 48.52 201.796 48.6667 201.663 48.96C201.556 49.2533 201.463 49.6933 201.383 50.28H200.463C200.516 49.6933 200.543 49.0133 200.543 48.24C200.569 47.44 200.583 46.4 200.583 45.12C200.609 43.84 200.623 42.2267 200.623 40.28H201.543C201.649 41.9333 201.943 43.48 202.423 44.92C202.929 46.36 203.689 47.52 204.703 48.4C205.743 49.2533 207.116 49.68 208.823 49.68C209.729 49.68 210.569 49.5067 211.343 49.16C212.116 48.8133 212.743 48.2667 213.223 47.52C213.703 46.7733 213.943 45.8133 213.943 44.64C213.943 43.5467 213.676 42.5867 213.143 41.76C212.636 40.9333 211.916 40.1733 210.983 39.48C210.076 38.76 209.009 38.0267 207.783 37.28C206.529 36.48 205.356 35.68 204.263 34.88C203.169 34.08 202.289 33.1467 201.623 32.08C200.983 31.0133 200.663 29.7467 200.663 28.28C200.663 26.6533 201.036 25.32 201.783 24.28C202.556 23.24 203.543 22.4667 204.743 21.96C205.969 21.4533 207.276 21.2 208.663 21.2ZM226.97 50.28C225.85 50.28 224.89 50.0667 224.09 49.64C223.29 49.2133 222.69 48.6267 222.29 47.88C221.89 47.1333 221.69 46.28 221.69 45.32C221.69 44.1467 221.957 43.2 222.49 42.48C223.023 41.7333 223.703 41.1333 224.53 40.68C225.383 40.2267 226.277 39.8533 227.21 39.56C228.17 39.24 229.063 38.9467 229.89 38.68C230.743 38.3867 231.437 38.0533 231.97 37.68C232.53 37.3067 232.81 36.8133 232.81 36.2V33.48C232.81 32.52 232.65 31.76 232.33 31.2C232.037 30.6133 231.623 30.2 231.09 29.96C230.583 29.72 229.97 29.6 229.25 29.6C228.637 29.6 227.983 29.6933 227.29 29.88C226.597 30.04 226.05 30.3733 225.65 30.88C226.237 31.04 226.717 31.36 227.09 31.84C227.49 32.2933 227.69 32.8667 227.69 33.56C227.69 34.3067 227.437 34.8933 226.93 35.32C226.45 35.7467 225.837 35.96 225.09 35.96C224.263 35.96 223.65 35.7067 223.25 35.2C222.85 34.6667 222.65 34.0533 222.65 33.36C222.65 32.64 222.823 32.0533 223.17 31.6C223.543 31.1467 224.023 30.72 224.61 30.32C225.25 29.8933 226.063 29.5333 227.05 29.24C228.063 28.9467 229.183 28.8 230.41 28.8C231.557 28.8 232.543 28.9333 233.37 29.2C234.223 29.44 234.93 29.84 235.49 30.4C236.157 31.0133 236.597 31.7867 236.81 32.72C237.023 33.6267 237.13 34.7333 237.13 36.04V47.08C237.13 47.7467 237.21 48.2267 237.37 48.52C237.557 48.7867 237.85 48.92 238.25 48.92C238.517 48.92 238.77 48.8533 239.01 48.72C239.277 48.5867 239.583 48.3867 239.93 48.12L240.33 48.8C239.77 49.2533 239.197 49.6133 238.61 49.88C238.05 50.1467 237.33 50.28 236.45 50.28C235.597 50.28 234.903 50.1467 234.37 49.88C233.837 49.6133 233.437 49.2267 233.17 48.72C232.93 48.2133 232.81 47.5867 232.81 46.84C232.117 47.96 231.29 48.8133 230.33 49.4C229.37 49.9867 228.25 50.28 226.97 50.28ZM228.89 48.36C229.637 48.36 230.33 48.1467 230.97 47.72C231.637 47.2933 232.25 46.6533 232.81 45.8V37.84C232.517 38.2667 232.09 38.64 231.53 38.96C230.97 39.2533 230.37 39.56 229.73 39.88C229.09 40.2 228.477 40.5733 227.89 41C227.33 41.4 226.863 41.92 226.49 42.56C226.117 43.2 225.93 44.0133 225.93 45C225.93 46.04 226.197 46.8667 226.73 47.48C227.263 48.0667 227.983 48.36 228.89 48.36ZM255.445 28.8C256.512 28.8 257.379 28.9467 258.045 29.24C258.739 29.5067 259.312 29.88 259.765 30.36C260.245 30.8667 260.579 31.52 260.765 32.32C260.979 33.12 261.085 34.2 261.085 35.56V46.28C261.085 47.4 261.299 48.16 261.725 48.56C262.179 48.96 262.925 49.16 263.965 49.16V50C263.512 49.9733 262.805 49.9467 261.845 49.92C260.885 49.8667 259.939 49.84 259.005 49.84C258.099 49.84 257.192 49.8667 256.285 49.92C255.405 49.9467 254.739 49.9733 254.285 50V49.16C255.192 49.16 255.832 48.96 256.205 48.56C256.579 48.16 256.765 47.4 256.765 46.28V34.44C256.765 33.6667 256.699 32.9733 256.565 32.36C256.432 31.72 256.152 31.2133 255.725 30.84C255.299 30.44 254.659 30.24 253.805 30.24C252.819 30.24 251.939 30.52 251.165 31.08C250.419 31.64 249.819 32.4133 249.365 33.4C248.939 34.36 248.725 35.44 248.725 36.64V46.28C248.725 47.4 248.912 48.16 249.285 48.56C249.685 48.96 250.325 49.16 251.205 49.16V50C250.779 49.9733 250.125 49.9467 249.245 49.92C248.392 49.8667 247.499 49.84 246.565 49.84C245.659 49.84 244.712 49.8667 243.725 49.92C242.739 49.9467 242.005 49.9733 241.525 50V49.16C242.565 49.16 243.299 48.96 243.725 48.56C244.179 48.16 244.405 47.4 244.405 46.28V33.72C244.405 32.52 244.205 31.64 243.805 31.08C243.405 30.4933 242.645 30.2 241.525 30.2V29.36C242.379 29.44 243.205 29.48 244.005 29.48C244.912 29.48 245.752 29.44 246.525 29.36C247.325 29.2533 248.059 29.1067 248.725 28.92V33.28C249.419 31.6267 250.365 30.4667 251.565 29.8C252.792 29.1333 254.085 28.8 255.445 28.8ZM284.347 18.64V45.64C284.347 46.84 284.547 47.7333 284.947 48.32C285.374 48.88 286.134 49.16 287.227 49.16V50C286.4 49.92 285.574 49.88 284.747 49.88C283.84 49.88 282.987 49.92 282.187 50C281.414 50.08 280.694 50.2267 280.027 50.44V23.44C280.027 22.24 279.814 21.36 279.387 20.8C278.987 20.2133 278.24 19.92 277.147 19.92V19.08C278 19.16 278.827 19.2 279.627 19.2C280.507 19.2 281.347 19.16 282.147 19.08C282.947 18.9733 283.68 18.8267 284.347 18.64ZM275.347 28.8C276.52 28.8 277.587 29.0533 278.547 29.56C279.534 30.0667 280.227 30.92 280.627 32.12L280.147 32.56C279.774 31.6 279.227 30.9067 278.507 30.48C277.787 30.0267 276.974 29.8 276.067 29.8C274.547 29.8 273.307 30.6133 272.347 32.24C271.387 33.84 270.92 36.32 270.947 39.68C270.947 41.8933 271.134 43.7067 271.507 45.12C271.88 46.5067 272.427 47.5333 273.147 48.2C273.894 48.8667 274.787 49.2 275.827 49.2C276.867 49.2 277.8 48.76 278.627 47.88C279.48 47 279.987 45.7333 280.147 44.08L280.507 44.92C280.24 46.7333 279.6 48.1333 278.587 49.12C277.574 50.08 276.214 50.56 274.507 50.56C272.88 50.56 271.44 50.1733 270.187 49.4C268.96 48.6 268.014 47.4 267.347 45.8C266.68 44.1733 266.347 42.1333 266.347 39.68C266.347 37.2533 266.747 35.24 267.547 33.64C268.374 32.0133 269.467 30.8 270.827 30C272.187 29.2 273.694 28.8 275.347 28.8ZM299.103 28.8C300.89 28.8 302.477 29.1733 303.863 29.92C305.25 30.6667 306.357 31.84 307.183 33.44C308.01 35.04 308.423 37.1333 308.423 39.72C308.423 42.3067 308.01 44.4 307.183 46C306.357 47.5733 305.25 48.7333 303.863 49.48C302.477 50.2 300.89 50.56 299.103 50.56C297.343 50.56 295.757 50.2 294.343 49.48C292.93 48.7333 291.81 47.5733 290.983 46C290.183 44.4 289.783 42.3067 289.783 39.72C289.783 37.1333 290.183 35.04 290.983 33.44C291.81 31.84 292.93 30.6667 294.343 29.92C295.757 29.1733 297.343 28.8 299.103 28.8ZM299.103 29.6C297.717 29.6 296.583 30.4 295.703 32C294.823 33.5733 294.383 36.1467 294.383 39.72C294.383 43.2933 294.823 45.8667 295.703 47.44C296.583 48.9867 297.717 49.76 299.103 49.76C300.463 49.76 301.583 48.9867 302.463 47.44C303.37 45.8667 303.823 43.2933 303.823 39.72C303.823 36.1467 303.37 33.5733 302.463 32C301.583 30.4 300.463 29.6 299.103 29.6ZM321.252 28.8C323.039 28.8 324.625 29.1733 326.012 29.92C327.399 30.6667 328.505 31.84 329.332 33.44C330.159 35.04 330.572 37.1333 330.572 39.72C330.572 42.3067 330.159 44.4 329.332 46C328.505 47.5733 327.399 48.7333 326.012 49.48C324.625 50.2 323.039 50.56 321.252 50.56C319.492 50.56 317.905 50.2 316.492 49.48C315.079 48.7333 313.959 47.5733 313.132 46C312.332 44.4 311.932 42.3067 311.932 39.72C311.932 37.1333 312.332 35.04 313.132 33.44C313.959 31.84 315.079 30.6667 316.492 29.92C317.905 29.1733 319.492 28.8 321.252 28.8ZM321.252 29.6C319.865 29.6 318.732 30.4 317.852 32C316.972 33.5733 316.532 36.1467 316.532 39.72C316.532 43.2933 316.972 45.8667 317.852 47.44C318.732 48.9867 319.865 49.76 321.252 49.76C322.612 49.76 323.732 48.9867 324.612 47.44C325.519 45.8667 325.972 43.2933 325.972 39.72C325.972 36.1467 325.519 33.5733 324.612 32C323.732 30.4 322.612 29.6 321.252 29.6ZM339.93 18.64V46.28C339.93 47.4 340.116 48.16 340.49 48.56C340.89 48.96 341.556 49.16 342.49 49.16V50C342.036 49.9733 341.356 49.9467 340.45 49.92C339.57 49.8667 338.676 49.84 337.77 49.84C336.836 49.84 335.876 49.8667 334.89 49.92C333.93 49.9467 333.21 49.9733 332.73 50V49.16C333.77 49.16 334.503 48.96 334.93 48.56C335.383 48.16 335.61 47.4 335.61 46.28V23.44C335.61 22.24 335.396 21.36 334.97 20.8C334.57 20.2133 333.823 19.92 332.73 19.92V19.08C333.583 19.16 334.41 19.2 335.21 19.2C336.09 19.2 336.93 19.16 337.73 19.08C338.53 18.9733 339.263 18.8267 339.93 18.64ZM352.73 29.36V30.16C352.01 30.2667 351.316 30.5067 350.65 30.88C349.983 31.2533 349.33 31.7733 348.69 32.44L343.89 37.48L344.41 36.48L351.65 47.08C352.05 47.64 352.436 48.1067 352.81 48.48C353.183 48.8267 353.65 49.0533 354.21 49.16V50C353.863 49.9733 353.343 49.9467 352.65 49.92C351.983 49.8667 351.316 49.84 350.65 49.84C349.77 49.84 348.876 49.8667 347.97 49.92C347.063 49.9467 346.396 49.9733 345.97 50V49.16C346.503 49.16 346.863 49.0267 347.05 48.76C347.263 48.4933 347.236 48.1733 346.97 47.8L342.57 40.92C342.116 40.28 341.703 39.8667 341.33 39.68C340.956 39.4933 340.423 39.3867 339.73 39.36V38.56C340.503 38.48 341.13 38.3333 341.61 38.12C342.116 37.9067 342.583 37.56 343.01 37.08L346.01 34.04C346.863 33.1867 347.29 32.48 347.29 31.92C347.29 31.3333 347.01 30.9067 346.45 30.64C345.916 30.3467 345.196 30.1867 344.29 30.16V29.36C345.01 29.3867 345.796 29.4267 346.65 29.48C347.53 29.5067 348.263 29.52 348.85 29.52C349.33 29.52 349.81 29.52 350.29 29.52C350.796 29.4933 351.263 29.4667 351.69 29.44C352.116 29.4133 352.463 29.3867 352.73 29.36Z" fill="#F5F5DD"/>
<line x1="85.25" y1="65.25" x2="85.25" y2="6.75" stroke="#F5F5DD" stroke-width="1.5" stroke-linecap="round"/>
</svg>
