<svg width="351" height="100" viewBox="0 0 351 100" fill="none" xmlns="http://www.w3.org/2000/svg">
<path d="M28.5193 0C43.7173 0.000171379 56.0376 12.3212 56.0376 27.5192C56.0374 39.172 48.7941 49.1318 38.5647 53.145C42.9529 56.2132 45.8685 61.2407 46.0441 66.9589C46.0794 67.1263 46.0997 67.2996 46.0997 67.4775C46.0999 82.6775 58.4218 94.9993 73.6218 94.9995C81.7726 94.9995 89.0935 91.4596 94.1367 85.8252C95.0574 84.7965 96.6379 84.7089 97.6667 85.6295C98.6955 86.5503 98.7832 88.1307 97.8624 89.1595C91.9109 95.8089 83.2539 100 73.6218 100C55.67 99.9998 41.1149 85.4544 41.0993 67.5063H41.0547C41.0547 60.8761 35.8973 55.4501 29.3755 55.0218C29.0912 55.0305 28.8058 55.0376 28.5193 55.0376C27.1385 55.0376 26.019 53.918 26.019 52.5373C26.0192 51.1568 27.1386 50.038 28.5193 50.038C28.5273 50.038 28.5353 50.0371 28.5434 50.0371V49.9944C28.8474 49.9944 29.1496 50.0014 29.4498 50.0167C41.4547 49.5285 51.0379 39.644 51.038 27.5192C51.038 15.0826 40.9558 5.00064 28.5193 5.00046C16.0825 5.00046 6.00046 15.0825 6.00046 27.5192C6.00029 28.8998 4.88083 30.0186 3.50023 30.0186C2.11963 30.0186 1.00017 28.8998 1 27.5192C1 12.3211 13.3211 0 28.5193 0Z" fill="#800000"/>
<path d="M20.9724 47.7223V62.7222" stroke="#800000" stroke-width="4.99998" stroke-linecap="round"/>
<path d="M67.2222 27.0388C67.9291 27.0388 69.7791 26.0552 67.2222 23.0557C64.6651 26.0552 66.5156 27.0388 67.2222 27.0388Z" fill="#800000"/>
<path d="M67.2223 31.4059C66.5154 31.4059 64.6654 32.3895 67.222 35.389C69.7791 32.3895 67.9288 31.4059 67.2223 31.4059Z" fill="#800000"/>
<path d="M67.2224 30.2501C67.79 30.2501 68.2501 29.79 68.2501 29.2224C68.2501 28.6547 67.79 28.1946 67.2224 28.1946C66.6547 28.1946 66.1946 28.6547 66.1946 29.2224C66.1946 29.79 66.6547 30.2501 67.2224 30.2501Z" fill="#800000"/>
<path d="M68.7662 27.6784C69.2659 28.1782 71.2696 28.791 71.5828 24.8618C67.6536 25.1748 68.2664 27.1787 68.7662 27.6784Z" fill="#800000"/>
<path d="M65.6784 30.7666L65.6774 30.7676L65.6782 30.766C65.1787 30.2665 63.175 29.654 62.8618 33.5827C66.791 33.2697 66.1782 31.2658 65.6784 30.7666Z" fill="#800000"/>
<path d="M65.6784 27.6784C66.1782 27.1787 66.791 25.175 62.8621 24.8621C63.1748 28.791 65.1787 28.1782 65.6784 27.6784Z" fill="#800000"/>
<path d="M68.7663 30.7663C68.2666 31.266 67.654 33.2697 71.5827 33.5829C71.2697 29.6537 69.2658 30.2665 68.7663 30.7663Z" fill="#800000"/>
<path d="M69.4058 29.2224C69.4058 29.9292 70.3893 31.7792 73.3889 29.2224C70.3893 26.6653 69.4058 28.5158 69.4058 29.2224Z" fill="#800000"/>
<path d="M65.0388 29.2224C65.0388 28.5155 64.0552 26.6655 61.0557 29.2221C64.0552 31.7792 65.0388 29.929 65.0388 29.2224Z" fill="#800000"/>
<path d="M67.1218 43.5278V63.5278" stroke="#800000" stroke-width="4.99998" stroke-linecap="round"/>
<path d="M47.0918 53.5278H67.1218" stroke="#800000" stroke-width="4.99998" stroke-linecap="round"/>
<path d="M62.1145 41.0278H72.1295" stroke="#800000" stroke-width="4.99998" stroke-linecap="round"/>
<path d="M91.56 21.68C92.1733 21.7067 92.96 21.7333 93.92 21.76C94.9067 21.7867 95.88 21.8 96.84 21.8C98.12 21.8 99.3333 21.7867 100.48 21.76C101.653 21.7333 102.48 21.72 102.96 21.72C105.227 21.72 107.107 22.0133 108.6 22.6C110.12 23.1867 111.24 24.0133 111.96 25.08C112.707 26.12 113.08 27.32 113.08 28.68C113.08 29.5067 112.907 30.3867 112.56 31.32C112.24 32.2267 111.667 33.08 110.84 33.88C110.013 34.6533 108.893 35.2933 107.48 35.8C106.067 36.3067 104.267 36.56 102.08 36.56H98.24V35.76H101.68C103.467 35.76 104.827 35.4667 105.76 34.88C106.72 34.2667 107.36 33.4667 107.68 32.48C108.027 31.4667 108.2 30.3467 108.2 29.12C108.2 27.0133 107.747 25.3867 106.84 24.24C105.933 23.0667 104.36 22.48 102.12 22.48C100.973 22.48 100.213 22.7067 99.84 23.16C99.4933 23.6133 99.32 24.5333 99.32 25.92V45.76C99.32 46.72 99.4 47.44 99.56 47.92C99.72 48.4 100.027 48.72 100.48 48.88C100.933 49.04 101.6 49.1467 102.48 49.2V50C101.84 49.9467 101.027 49.92 100.04 49.92C99.08 49.8933 98.0933 49.88 97.08 49.88C95.96 49.88 94.9067 49.8933 93.92 49.92C92.96 49.92 92.1733 49.9467 91.56 50V49.2C92.4667 49.1467 93.1467 49.04 93.6 48.88C94.0533 48.72 94.3467 48.4 94.48 47.92C94.64 47.44 94.72 46.72 94.72 45.76V25.92C94.72 24.9333 94.64 24.2133 94.48 23.76C94.3467 23.28 94.04 22.96 93.56 22.8C93.1067 22.6133 92.44 22.5067 91.56 22.48V21.68ZM98.32 35.88C99.68 35.9333 100.773 36 101.6 36.08C102.427 36.1333 103.12 36.1867 103.68 36.24C104.24 36.2933 104.76 36.36 105.24 36.44C107.24 36.7067 108.693 37.24 109.6 38.04C110.533 38.84 111.173 40.0667 111.52 41.72L112.52 45.8C112.76 46.9467 113.013 47.76 113.28 48.24C113.573 48.72 114 48.96 114.56 48.96C114.987 48.9333 115.333 48.8133 115.6 48.6C115.893 48.36 116.2 48.04 116.52 47.64L117.08 48.08C116.467 48.9067 115.827 49.5333 115.16 49.96C114.493 50.36 113.6 50.56 112.48 50.56C111.333 50.56 110.347 50.2667 109.52 49.68C108.72 49.0667 108.147 47.92 107.8 46.24L107 42.24C106.76 41.0933 106.493 40.1067 106.2 39.28C105.907 38.4267 105.493 37.76 104.96 37.28C104.453 36.8 103.707 36.56 102.72 36.56H98.4L98.32 35.88ZM127.603 28.8C129.39 28.8 130.977 29.1733 132.363 29.92C133.75 30.6667 134.857 31.84 135.683 33.44C136.51 35.04 136.923 37.1333 136.923 39.72C136.923 42.3067 136.51 44.4 135.683 46C134.857 47.5733 133.75 48.7333 132.363 49.48C130.977 50.2 129.39 50.56 127.603 50.56C125.843 50.56 124.257 50.2 122.843 49.48C121.43 48.7333 120.31 47.5733 119.483 46C118.683 44.4 118.283 42.3067 118.283 39.72C118.283 37.1333 118.683 35.04 119.483 33.44C120.31 31.84 121.43 30.6667 122.843 29.92C124.257 29.1733 125.843 28.8 127.603 28.8ZM127.603 29.6C126.217 29.6 125.083 30.4 124.203 32C123.323 33.5733 122.883 36.1467 122.883 39.72C122.883 43.2933 123.323 45.8667 124.203 47.44C125.083 48.9867 126.217 49.76 127.603 49.76C128.963 49.76 130.083 48.9867 130.963 47.44C131.87 45.8667 132.323 43.2933 132.323 39.72C132.323 36.1467 131.87 33.5733 130.963 32C130.083 30.4 128.963 29.6 127.603 29.6ZM149.752 28.8C151.539 28.8 153.125 29.1733 154.512 29.92C155.899 30.6667 157.005 31.84 157.832 33.44C158.659 35.04 159.072 37.1333 159.072 39.72C159.072 42.3067 158.659 44.4 157.832 46C157.005 47.5733 155.899 48.7333 154.512 49.48C153.125 50.2 151.539 50.56 149.752 50.56C147.992 50.56 146.405 50.2 144.992 49.48C143.579 48.7333 142.459 47.5733 141.632 46C140.832 44.4 140.432 42.3067 140.432 39.72C140.432 37.1333 140.832 35.04 141.632 33.44C142.459 31.84 143.579 30.6667 144.992 29.92C146.405 29.1733 147.992 28.8 149.752 28.8ZM149.752 29.6C148.365 29.6 147.232 30.4 146.352 32C145.472 33.5733 145.032 36.1467 145.032 39.72C145.032 43.2933 145.472 45.8667 146.352 47.44C147.232 48.9867 148.365 49.76 149.752 49.76C151.112 49.76 152.232 48.9867 153.112 47.44C154.019 45.8667 154.472 43.2933 154.472 39.72C154.472 36.1467 154.019 33.5733 153.112 32C152.232 30.4 151.112 29.6 149.752 29.6ZM168.86 28.92V53.44C168.86 54.6133 169.194 55.4 169.86 55.8C170.527 56.2 171.447 56.4 172.62 56.4V57.24C172.007 57.2133 171.154 57.1733 170.06 57.12C168.967 57.0933 167.794 57.08 166.54 57.08C165.66 57.08 164.794 57.0933 163.94 57.12C163.087 57.1733 162.434 57.2133 161.98 57.24V56.4C162.914 56.4 163.567 56.2133 163.94 55.84C164.34 55.4933 164.54 54.8267 164.54 53.84V33.72C164.54 32.52 164.34 31.64 163.94 31.08C163.54 30.4933 162.78 30.2 161.66 30.2V29.36C162.514 29.44 163.34 29.48 164.14 29.48C165.02 29.48 165.86 29.44 166.66 29.36C167.46 29.2533 168.194 29.1067 168.86 28.92ZM175.22 28.8C176.607 28.8 177.847 29.1867 178.94 29.96C180.06 30.7067 180.94 31.8133 181.58 33.28C182.22 34.7467 182.54 36.5733 182.54 38.76C182.54 40.36 182.354 41.88 181.98 43.32C181.607 44.7333 181.034 45.9867 180.26 47.08C179.514 48.1467 178.567 49 177.42 49.64C176.274 50.2533 174.914 50.56 173.34 50.56C172.167 50.56 171.127 50.3067 170.22 49.8C169.34 49.2933 168.714 48.6533 168.34 47.88L168.74 47.32C169.087 47.9867 169.567 48.5333 170.18 48.96C170.82 49.3867 171.607 49.6 172.54 49.6C173.927 49.6 175.007 49.16 175.78 48.28C176.58 47.3733 177.14 46.16 177.46 44.64C177.78 43.0933 177.94 41.3467 177.94 39.4C177.94 37.2133 177.78 35.4533 177.46 34.12C177.14 32.76 176.66 31.7733 176.02 31.16C175.38 30.52 174.607 30.2 173.7 30.2C172.5 30.2 171.407 30.68 170.42 31.64C169.46 32.6 168.874 34.04 168.66 35.96L168.26 35.12C168.607 33.12 169.407 31.5733 170.66 30.48C171.94 29.36 173.46 28.8 175.22 28.8ZM204.663 21.2C206.076 21.2 207.156 21.36 207.903 21.68C208.649 22 209.303 22.3467 209.863 22.72C210.183 22.9067 210.436 23.0533 210.623 23.16C210.836 23.24 211.036 23.28 211.223 23.28C211.489 23.28 211.676 23.1333 211.783 22.84C211.916 22.5467 212.023 22.1067 212.103 21.52H213.023C212.996 22 212.956 22.5733 212.903 23.24C212.876 23.88 212.849 24.7333 212.823 25.8C212.823 26.8667 212.823 28.2667 212.823 30H211.903C211.823 28.6933 211.529 27.4267 211.023 26.2C210.543 24.9733 209.823 23.9733 208.863 23.2C207.929 22.4267 206.729 22.04 205.263 22.04C203.903 22.04 202.769 22.4533 201.863 23.28C200.983 24.08 200.543 25.1467 200.543 26.48C200.543 27.6533 200.836 28.64 201.423 29.44C202.009 30.2133 202.809 30.9467 203.823 31.64C204.863 32.3067 206.036 33.0533 207.343 33.88C208.676 34.7333 209.876 35.5867 210.943 36.44C212.009 37.2667 212.849 38.1867 213.463 39.2C214.076 40.2133 214.383 41.44 214.383 42.88C214.383 44.6133 213.969 46.0533 213.143 47.2C212.343 48.32 211.263 49.16 209.903 49.72C208.543 50.28 207.049 50.56 205.423 50.56C203.929 50.56 202.743 50.4 201.863 50.08C200.983 49.76 200.236 49.4267 199.623 49.08C199.036 48.7067 198.583 48.52 198.263 48.52C197.996 48.52 197.796 48.6667 197.663 48.96C197.556 49.2533 197.463 49.6933 197.383 50.28H196.463C196.516 49.6933 196.543 49.0133 196.543 48.24C196.569 47.44 196.583 46.4 196.583 45.12C196.609 43.84 196.623 42.2267 196.623 40.28H197.543C197.649 41.9333 197.943 43.48 198.423 44.92C198.929 46.36 199.689 47.52 200.703 48.4C201.743 49.2533 203.116 49.68 204.823 49.68C205.729 49.68 206.569 49.5067 207.343 49.16C208.116 48.8133 208.743 48.2667 209.223 47.52C209.703 46.7733 209.943 45.8133 209.943 44.64C209.943 43.5467 209.676 42.5867 209.143 41.76C208.636 40.9333 207.916 40.1733 206.983 39.48C206.076 38.76 205.009 38.0267 203.783 37.28C202.529 36.48 201.356 35.68 200.263 34.88C199.169 34.08 198.289 33.1467 197.623 32.08C196.983 31.0133 196.663 29.7467 196.663 28.28C196.663 26.6533 197.036 25.32 197.783 24.28C198.556 23.24 199.543 22.4667 200.743 21.96C201.969 21.4533 203.276 21.2 204.663 21.2ZM222.97 50.28C221.85 50.28 220.89 50.0667 220.09 49.64C219.29 49.2133 218.69 48.6267 218.29 47.88C217.89 47.1333 217.69 46.28 217.69 45.32C217.69 44.1467 217.957 43.2 218.49 42.48C219.023 41.7333 219.703 41.1333 220.53 40.68C221.383 40.2267 222.277 39.8533 223.21 39.56C224.17 39.24 225.063 38.9467 225.89 38.68C226.743 38.3867 227.437 38.0533 227.97 37.68C228.53 37.3067 228.81 36.8133 228.81 36.2V33.48C228.81 32.52 228.65 31.76 228.33 31.2C228.037 30.6133 227.623 30.2 227.09 29.96C226.583 29.72 225.97 29.6 225.25 29.6C224.637 29.6 223.983 29.6933 223.29 29.88C222.597 30.04 222.05 30.3733 221.65 30.88C222.237 31.04 222.717 31.36 223.09 31.84C223.49 32.2933 223.69 32.8667 223.69 33.56C223.69 34.3067 223.437 34.8933 222.93 35.32C222.45 35.7467 221.837 35.96 221.09 35.96C220.263 35.96 219.65 35.7067 219.25 35.2C218.85 34.6667 218.65 34.0533 218.65 33.36C218.65 32.64 218.823 32.0533 219.17 31.6C219.543 31.1467 220.023 30.72 220.61 30.32C221.25 29.8933 222.063 29.5333 223.05 29.24C224.063 28.9467 225.183 28.8 226.41 28.8C227.557 28.8 228.543 28.9333 229.37 29.2C230.223 29.44 230.93 29.84 231.49 30.4C232.157 31.0133 232.597 31.7867 232.81 32.72C233.023 33.6267 233.13 34.7333 233.13 36.04V47.08C233.13 47.7467 233.21 48.2267 233.37 48.52C233.557 48.7867 233.85 48.92 234.25 48.92C234.517 48.92 234.77 48.8533 235.01 48.72C235.277 48.5867 235.583 48.3867 235.93 48.12L236.33 48.8C235.77 49.2533 235.197 49.6133 234.61 49.88C234.05 50.1467 233.33 50.28 232.45 50.28C231.597 50.28 230.903 50.1467 230.37 49.88C229.837 49.6133 229.437 49.2267 229.17 48.72C228.93 48.2133 228.81 47.5867 228.81 46.84C228.117 47.96 227.29 48.8133 226.33 49.4C225.37 49.9867 224.25 50.28 222.97 50.28ZM224.89 48.36C225.637 48.36 226.33 48.1467 226.97 47.72C227.637 47.2933 228.25 46.6533 228.81 45.8V37.84C228.517 38.2667 228.09 38.64 227.53 38.96C226.97 39.2533 226.37 39.56 225.73 39.88C225.09 40.2 224.477 40.5733 223.89 41C223.33 41.4 222.863 41.92 222.49 42.56C222.117 43.2 221.93 44.0133 221.93 45C221.93 46.04 222.197 46.8667 222.73 47.48C223.263 48.0667 223.983 48.36 224.89 48.36ZM251.445 28.8C252.512 28.8 253.379 28.9467 254.045 29.24C254.739 29.5067 255.312 29.88 255.765 30.36C256.245 30.8667 256.579 31.52 256.765 32.32C256.979 33.12 257.085 34.2 257.085 35.56V46.28C257.085 47.4 257.299 48.16 257.725 48.56C258.179 48.96 258.925 49.16 259.965 49.16V50C259.512 49.9733 258.805 49.9467 257.845 49.92C256.885 49.8667 255.939 49.84 255.005 49.84C254.099 49.84 253.192 49.8667 252.285 49.92C251.405 49.9467 250.739 49.9733 250.285 50V49.16C251.192 49.16 251.832 48.96 252.205 48.56C252.579 48.16 252.765 47.4 252.765 46.28V34.44C252.765 33.6667 252.699 32.9733 252.565 32.36C252.432 31.72 252.152 31.2133 251.725 30.84C251.299 30.44 250.659 30.24 249.805 30.24C248.819 30.24 247.939 30.52 247.165 31.08C246.419 31.64 245.819 32.4133 245.365 33.4C244.939 34.36 244.725 35.44 244.725 36.64V46.28C244.725 47.4 244.912 48.16 245.285 48.56C245.685 48.96 246.325 49.16 247.205 49.16V50C246.779 49.9733 246.125 49.9467 245.245 49.92C244.392 49.8667 243.499 49.84 242.565 49.84C241.659 49.84 240.712 49.8667 239.725 49.92C238.739 49.9467 238.005 49.9733 237.525 50V49.16C238.565 49.16 239.299 48.96 239.725 48.56C240.179 48.16 240.405 47.4 240.405 46.28V33.72C240.405 32.52 240.205 31.64 239.805 31.08C239.405 30.4933 238.645 30.2 237.525 30.2V29.36C238.379 29.44 239.205 29.48 240.005 29.48C240.912 29.48 241.752 29.44 242.525 29.36C243.325 29.2533 244.059 29.1067 244.725 28.92V33.28C245.419 31.6267 246.365 30.4667 247.565 29.8C248.792 29.1333 250.085 28.8 251.445 28.8ZM280.347 18.64V45.64C280.347 46.84 280.547 47.7333 280.947 48.32C281.374 48.88 282.134 49.16 283.227 49.16V50C282.4 49.92 281.574 49.88 280.747 49.88C279.84 49.88 278.987 49.92 278.187 50C277.414 50.08 276.694 50.2267 276.027 50.44V23.44C276.027 22.24 275.814 21.36 275.387 20.8C274.987 20.2133 274.24 19.92 273.147 19.92V19.08C274 19.16 274.827 19.2 275.627 19.2C276.507 19.2 277.347 19.16 278.147 19.08C278.947 18.9733 279.68 18.8267 280.347 18.64ZM271.347 28.8C272.52 28.8 273.587 29.0533 274.547 29.56C275.534 30.0667 276.227 30.92 276.627 32.12L276.147 32.56C275.774 31.6 275.227 30.9067 274.507 30.48C273.787 30.0267 272.974 29.8 272.067 29.8C270.547 29.8 269.307 30.6133 268.347 32.24C267.387 33.84 266.92 36.32 266.947 39.68C266.947 41.8933 267.134 43.7067 267.507 45.12C267.88 46.5067 268.427 47.5333 269.147 48.2C269.894 48.8667 270.787 49.2 271.827 49.2C272.867 49.2 273.8 48.76 274.627 47.88C275.48 47 275.987 45.7333 276.147 44.08L276.507 44.92C276.24 46.7333 275.6 48.1333 274.587 49.12C273.574 50.08 272.214 50.56 270.507 50.56C268.88 50.56 267.44 50.1733 266.187 49.4C264.96 48.6 264.014 47.4 263.347 45.8C262.68 44.1733 262.347 42.1333 262.347 39.68C262.347 37.2533 262.747 35.24 263.547 33.64C264.374 32.0133 265.467 30.8 266.827 30C268.187 29.2 269.694 28.8 271.347 28.8ZM295.103 28.8C296.89 28.8 298.477 29.1733 299.863 29.92C301.25 30.6667 302.357 31.84 303.183 33.44C304.01 35.04 304.423 37.1333 304.423 39.72C304.423 42.3067 304.01 44.4 303.183 46C302.357 47.5733 301.25 48.7333 299.863 49.48C298.477 50.2 296.89 50.56 295.103 50.56C293.343 50.56 291.757 50.2 290.343 49.48C288.93 48.7333 287.81 47.5733 286.983 46C286.183 44.4 285.783 42.3067 285.783 39.72C285.783 37.1333 286.183 35.04 286.983 33.44C287.81 31.84 288.93 30.6667 290.343 29.92C291.757 29.1733 293.343 28.8 295.103 28.8ZM295.103 29.6C293.717 29.6 292.583 30.4 291.703 32C290.823 33.5733 290.383 36.1467 290.383 39.72C290.383 43.2933 290.823 45.8667 291.703 47.44C292.583 48.9867 293.717 49.76 295.103 49.76C296.463 49.76 297.583 48.9867 298.463 47.44C299.37 45.8667 299.823 43.2933 299.823 39.72C299.823 36.1467 299.37 33.5733 298.463 32C297.583 30.4 296.463 29.6 295.103 29.6ZM317.252 28.8C319.039 28.8 320.625 29.1733 322.012 29.92C323.399 30.6667 324.505 31.84 325.332 33.44C326.159 35.04 326.572 37.1333 326.572 39.72C326.572 42.3067 326.159 44.4 325.332 46C324.505 47.5733 323.399 48.7333 322.012 49.48C320.625 50.2 319.039 50.56 317.252 50.56C315.492 50.56 313.905 50.2 312.492 49.48C311.079 48.7333 309.959 47.5733 309.132 46C308.332 44.4 307.932 42.3067 307.932 39.72C307.932 37.1333 308.332 35.04 309.132 33.44C309.959 31.84 311.079 30.6667 312.492 29.92C313.905 29.1733 315.492 28.8 317.252 28.8ZM317.252 29.6C315.865 29.6 314.732 30.4 313.852 32C312.972 33.5733 312.532 36.1467 312.532 39.72C312.532 43.2933 312.972 45.8667 313.852 47.44C314.732 48.9867 315.865 49.76 317.252 49.76C318.612 49.76 319.732 48.9867 320.612 47.44C321.519 45.8667 321.972 43.2933 321.972 39.72C321.972 36.1467 321.519 33.5733 320.612 32C319.732 30.4 318.612 29.6 317.252 29.6ZM335.93 18.64V46.28C335.93 47.4 336.116 48.16 336.49 48.56C336.89 48.96 337.556 49.16 338.49 49.16V50C338.036 49.9733 337.356 49.9467 336.45 49.92C335.57 49.8667 334.676 49.84 333.77 49.84C332.836 49.84 331.876 49.8667 330.89 49.92C329.93 49.9467 329.21 49.9733 328.73 50V49.16C329.77 49.16 330.503 48.96 330.93 48.56C331.383 48.16 331.61 47.4 331.61 46.28V23.44C331.61 22.24 331.396 21.36 330.97 20.8C330.57 20.2133 329.823 19.92 328.73 19.92V19.08C329.583 19.16 330.41 19.2 331.21 19.2C332.09 19.2 332.93 19.16 333.73 19.08C334.53 18.9733 335.263 18.8267 335.93 18.64ZM348.73 29.36V30.16C348.01 30.2667 347.316 30.5067 346.65 30.88C345.983 31.2533 345.33 31.7733 344.69 32.44L339.89 37.48L340.41 36.48L347.65 47.08C348.05 47.64 348.436 48.1067 348.81 48.48C349.183 48.8267 349.65 49.0533 350.21 49.16V50C349.863 49.9733 349.343 49.9467 348.65 49.92C347.983 49.8667 347.316 49.84 346.65 49.84C345.77 49.84 344.876 49.8667 343.97 49.92C343.063 49.9467 342.396 49.9733 341.97 50V49.16C342.503 49.16 342.863 49.0267 343.05 48.76C343.263 48.4933 343.236 48.1733 342.97 47.8L338.57 40.92C338.116 40.28 337.703 39.8667 337.33 39.68C336.956 39.4933 336.423 39.3867 335.73 39.36V38.56C336.503 38.48 337.13 38.3333 337.61 38.12C338.116 37.9067 338.583 37.56 339.01 37.08L342.01 34.04C342.863 33.1867 343.29 32.48 343.29 31.92C343.29 31.3333 343.01 30.9067 342.45 30.64C341.916 30.3467 341.196 30.1867 340.29 30.16V29.36C341.01 29.3867 341.796 29.4267 342.65 29.48C343.53 29.5067 344.263 29.52 344.85 29.52C345.33 29.52 345.81 29.52 346.29 29.52C346.796 29.4933 347.263 29.4667 347.69 29.44C348.116 29.4133 348.463 29.3867 348.73 29.36Z" fill="#800000"/>
<line x1="82.5" y1="65.5" x2="82.5" y2="6.5" stroke="#800000" stroke-linecap="round"/>
</svg>
